<svg width="152" height="63" viewBox="0 0 152 63" fill="none" xmlns="http://www.w3.org/2000/svg">
<path fill-rule="evenodd" clip-rule="evenodd" d="M30.7653 42.3427C28.1575 42.9859 25.3763 43.1081 22.5612 42.6117C11.7476 40.705 4.52722 30.3932 6.43393 19.5796C8.34065 8.7661 18.6525 1.5457 29.466 3.45242C40.2795 5.35914 47.4999 15.6709 45.5932 26.4845C44.8116 30.9171 42.6177 34.7461 39.5558 37.59C39.5792 37.6193 39.6026 37.6485 39.6258 37.6779C40.7132 39.0537 41.4736 40.5828 41.9069 42.265C42.3559 43.9499 42.4108 45.8006 42.0715 47.817C41.5343 50.7716 40.327 53.2027 38.4498 55.1101C36.591 57.0045 34.1562 58.3026 31.1452 59.0044C28.1528 59.6933 24.6902 59.691 20.7574 58.9976C16.8561 58.3097 13.5635 57.1127 10.8798 55.4068C8.21183 53.7036 6.27433 51.5372 5.06732 48.9075C3.87882 46.2649 3.55175 43.1984 4.08611 39.708L13.9731 41.4513C13.7975 43.091 14.0231 44.5257 14.6497 45.7554C15.2948 46.9722 16.261 47.9779 17.5483 48.7726C18.854 49.5543 20.3879 50.1005 22.1497 50.4112C23.8802 50.7163 25.4269 50.7295 26.7899 50.4508C28.1686 50.1748 29.2909 49.6509 30.157 48.8791C31.023 48.1072 31.5586 47.1392 31.7639 45.9751C31.9553 44.8897 31.7936 43.9204 31.279 43.0673C31.1345 42.821 30.9632 42.5794 30.7653 42.3427ZM31.3706 32.5007C29.2492 33.7024 26.7131 34.2019 24.1245 33.7455C23.7547 33.6803 23.3926 33.5971 23.0389 33.497C19.6787 32.5462 17.0784 30.0694 15.8717 26.9718C15.173 25.1784 14.9416 23.1769 15.3002 21.143C16.0175 17.0752 18.9085 13.9366 22.568 12.7113C24.2314 12.1543 26.0536 11.9927 27.9026 12.3187C31.3693 12.93 34.1611 15.12 35.669 18.019C36.7346 20.0679 37.159 22.471 36.7269 24.9211C36.6874 25.1455 36.6412 25.367 36.5887 25.5855L36.5887 25.5855C35.9397 28.2848 34.3178 30.5276 32.1673 32.003C31.9091 32.1801 31.6433 32.3462 31.3706 32.5007Z" fill="url(#paint0_linear_7802_48)"/>
<path d="M70.7494 17.5625C70.6354 16.4131 70.1462 15.5202 69.2818 14.8838C68.4174 14.2474 67.2443 13.9292 65.7624 13.9292C64.7556 13.9292 63.9054 14.0717 63.212 14.3566C62.5186 14.6321 61.9866 15.0168 61.6162 15.5107C61.2552 16.0047 61.0747 16.5651 61.0747 17.192C61.0557 17.7145 61.165 18.1704 61.4024 18.5599C61.6494 18.9493 61.9866 19.2865 62.4141 19.5715C62.8415 19.847 63.3355 20.0892 63.8959 20.2982C64.4563 20.4977 65.0548 20.6686 65.6912 20.8111L68.3129 21.438C69.5857 21.723 70.7541 22.103 71.818 22.5779C72.8819 23.0529 73.8032 23.637 74.5822 24.3305C75.3611 25.0239 75.9642 25.8408 76.3917 26.7812C76.8286 27.7216 77.0519 28.7997 77.0614 30.0155C77.0519 31.8013 76.5959 33.3497 75.6935 34.6605C74.8006 35.9619 73.5088 36.9735 71.818 37.6954C70.1367 38.4078 68.1087 38.764 65.7339 38.764C63.3782 38.764 61.3264 38.4031 59.5787 37.6812C57.8404 36.9592 56.482 35.8906 55.5036 34.4753C54.5347 33.0504 54.0265 31.2884 53.9791 29.1891H59.9491C60.0156 30.1675 60.2958 30.9844 60.7898 31.6399C61.2932 32.2858 61.9629 32.775 62.7988 33.1074C63.6442 33.4304 64.5988 33.5919 65.6627 33.5919C66.7076 33.5919 67.6147 33.4399 68.3841 33.1359C69.163 32.832 69.7662 32.4093 70.1937 31.8678C70.6211 31.3264 70.8348 30.7042 70.8348 30.0013C70.8348 29.3459 70.6401 28.7949 70.2507 28.3485C69.8707 27.902 69.3103 27.5221 68.5694 27.2086C67.8379 26.8952 66.9403 26.6102 65.8764 26.3537L62.699 25.5558C60.2388 24.9574 58.2963 24.0217 56.8715 22.7489C55.4466 21.476 54.739 19.7615 54.7485 17.6052C54.739 15.8384 55.2092 14.2949 56.1591 12.9745C57.1184 11.6542 58.434 10.6236 60.1058 9.88264C61.7776 9.14173 63.6774 8.77127 65.8052 8.77127C67.9709 8.77127 69.8612 9.14173 71.476 9.88264C73.1003 10.6236 74.3637 11.6542 75.2661 12.9745C76.1685 14.2949 76.6339 15.8242 76.6624 17.5625H70.7494ZM91.0711 38.7783C88.8198 38.7783 86.882 38.3223 85.2577 37.4104C83.6429 36.489 82.3986 35.1877 81.5247 33.5064C80.6508 31.8156 80.2138 29.8161 80.2138 27.5078C80.2138 25.2566 80.6508 23.2808 81.5247 21.5805C82.3986 19.8802 83.6287 18.5551 85.215 17.6052C86.8108 16.6554 88.6821 16.1804 90.8288 16.1804C92.2727 16.1804 93.6168 16.4131 94.8611 16.8786C96.115 17.3345 97.2073 18.0232 98.1382 18.9446C99.0786 19.866 99.81 21.0248 100.332 22.4212C100.855 23.808 101.116 25.4323 101.116 27.2941V28.9612H82.636V25.1996H95.4025C95.4025 24.3257 95.2126 23.5516 94.8326 22.8771C94.4527 22.2027 93.9255 21.6755 93.251 21.2956C92.5861 20.9061 91.812 20.7114 90.9286 20.7114C90.0072 20.7114 89.1903 20.9251 88.4779 21.3526C87.7749 21.7705 87.224 22.3357 86.825 23.0481C86.4261 23.751 86.2219 24.5347 86.2124 25.3991V28.9754C86.2124 30.0583 86.4118 30.9939 86.8108 31.7823C87.2192 32.5708 87.7939 33.1787 88.5348 33.6061C89.2758 34.0336 90.1544 34.2473 91.1708 34.2473C91.8452 34.2473 92.4626 34.1523 93.0231 33.9623C93.5835 33.7724 94.0632 33.4874 94.4622 33.1074C94.8611 32.7275 95.1651 32.262 95.3741 31.7111L100.988 32.0816C100.703 33.4304 100.119 34.6083 99.2354 35.6151C98.3615 36.6125 97.2311 37.3914 95.8442 37.9519C94.4669 38.5028 92.8758 38.7783 91.0711 38.7783ZM111.147 25.6983V38.3508H105.077V16.4654H110.862V20.3267H111.118C111.603 19.0538 112.415 18.0469 113.555 17.306C114.695 16.5556 116.077 16.1804 117.701 16.1804C119.221 16.1804 120.546 16.5129 121.676 17.1778C122.807 17.8427 123.686 18.7926 124.312 20.0275C124.939 21.2528 125.253 22.7156 125.253 24.416V38.3508H119.183V25.4988C119.193 24.1595 118.851 23.1146 118.157 22.3642C117.464 21.6043 116.509 21.2243 115.293 21.2243C114.476 21.2243 113.754 21.4001 113.127 21.7515C112.51 22.103 112.026 22.6159 111.674 23.2903C111.332 23.9553 111.156 24.7579 111.147 25.6983ZM136.277 38.764C134.881 38.764 133.637 38.5218 132.544 38.0374C131.452 37.5434 130.588 36.8168 129.951 35.8574C129.324 34.8885 129.011 33.6821 129.011 32.2383C129.011 31.0224 129.234 30.0013 129.68 29.1749C130.127 28.3485 130.735 27.6836 131.504 27.1801C132.274 26.6767 133.148 26.2967 134.126 26.0403C135.114 25.7838 136.149 25.6033 137.232 25.4988C138.505 25.3658 139.531 25.2424 140.31 25.1284C141.089 25.0049 141.654 24.8244 142.005 24.5869C142.357 24.3495 142.533 23.998 142.533 23.5326V23.4471C142.533 22.5447 142.248 21.8465 141.678 21.3526C141.117 20.8586 140.319 20.6116 139.284 20.6116C138.192 20.6116 137.322 20.8539 136.676 21.3383C136.031 21.8133 135.603 22.4117 135.394 23.1336L129.78 22.6777C130.065 21.3478 130.626 20.1984 131.462 19.2296C132.297 18.2512 133.376 17.5008 134.696 16.9783C136.026 16.4464 137.565 16.1804 139.312 16.1804C140.528 16.1804 141.692 16.3229 142.803 16.6079C143.924 16.8928 144.917 17.3345 145.781 17.933C146.655 18.5314 147.344 19.3008 147.847 20.2412C148.351 21.1721 148.602 22.2882 148.602 23.5895V38.3508H142.846V35.3159H142.675C142.324 35.9999 141.853 36.603 141.264 37.1255C140.675 37.6384 139.968 38.0421 139.141 38.3366C138.315 38.6215 137.36 38.764 136.277 38.764ZM138.016 34.575C138.909 34.575 139.697 34.3993 140.381 34.0478C141.065 33.6869 141.602 33.2024 141.991 32.5945C142.381 31.9866 142.575 31.2979 142.575 30.5285V28.206C142.385 28.3295 142.124 28.4435 141.792 28.548C141.469 28.643 141.103 28.7332 140.694 28.8187C140.286 28.8947 139.878 28.9659 139.469 29.0324C139.061 29.0894 138.69 29.1417 138.358 29.1891C137.645 29.2936 137.023 29.4599 136.491 29.6878C135.959 29.9158 135.546 30.2245 135.252 30.614C134.957 30.9939 134.81 31.4689 134.81 32.0388C134.81 32.8652 135.109 33.4969 135.708 33.9338C136.315 34.3613 137.085 34.575 138.016 34.575Z" fill="#FEFDFD"/>
<path d="M55.8352 50.9542L53.993 44.2526H54.4184L56.0545 50.3227H56.0938L57.7037 44.2526H58.2011L59.811 50.3227H59.8503L61.4864 44.2526H61.9086L60.0663 50.9542H59.5951L57.9688 44.9235H57.9328L56.3064 50.9542H55.8352ZM67.8333 51.0589C67.3795 51.0589 66.9847 50.9466 66.6487 50.7219C66.3128 50.4972 66.0532 50.1896 65.8699 49.7991C65.6867 49.4086 65.595 48.9636 65.595 48.464C65.595 47.9623 65.6867 47.5151 65.8699 47.1224C66.0553 46.7297 66.3095 46.42 66.6323 46.1931C66.9552 45.9662 67.3239 45.8528 67.7384 45.8528C68.0198 45.8528 68.2859 45.9095 68.5368 46.0229C68.7899 46.1342 69.0124 46.2956 69.2043 46.5072C69.3985 46.7188 69.5501 46.9741 69.6592 47.2729C69.7704 47.5718 69.8261 47.9078 69.8261 48.2808V48.5295H65.847V48.1663H69.4269C69.4269 47.8019 69.3527 47.4736 69.2043 47.1813C69.056 46.889 68.8542 46.6567 68.599 46.4843C68.3437 46.312 68.0569 46.2258 67.7384 46.2258C67.4046 46.2258 67.1068 46.3196 66.845 46.5072C66.5854 46.6927 66.3793 46.9435 66.2266 47.2598C66.0761 47.5762 65.9975 47.9296 65.991 48.3201V48.4837C65.991 48.9025 66.0641 49.2788 66.2102 49.6126C66.3586 49.9442 66.5702 50.2071 66.845 50.4012C67.1199 50.5932 67.4493 50.6892 67.8333 50.6892C68.1081 50.6892 68.3426 50.6434 68.5368 50.5517C68.7331 50.4579 68.8935 50.3445 69.0178 50.2114C69.1422 50.0783 69.236 49.9496 69.2992 49.8253L69.6625 49.9725C69.5861 50.1405 69.4672 50.3085 69.3058 50.4765C69.1465 50.6423 68.9437 50.7808 68.6971 50.8921C68.4528 51.0033 68.1649 51.0589 67.8333 51.0589ZM74.7045 50.9542V44.2526H75.1004V47.0504H75.1397C75.2182 46.8345 75.3295 46.6359 75.4735 46.4549C75.6174 46.2738 75.7963 46.1287 76.0101 46.0197C76.2239 45.9084 76.4737 45.8528 76.7595 45.8528C77.163 45.8528 77.5154 45.9651 77.8164 46.1898C78.1174 46.4123 78.3509 46.7199 78.5167 47.1126C78.6825 47.5031 78.7654 47.9503 78.7654 48.4542C78.7654 48.9625 78.6825 49.413 78.5167 49.8057C78.3509 50.1962 78.1185 50.5027 77.8197 50.7252C77.5208 50.9477 77.1685 51.0589 76.7627 51.0589C76.477 51.0589 76.2272 51.0044 76.0134 50.8953C75.7996 50.7841 75.6207 50.6379 75.4767 50.4568C75.3328 50.2736 75.2204 50.074 75.1397 49.858H75.0939V50.9542H74.7045ZM75.0972 48.4509C75.0972 48.8785 75.1615 49.2614 75.2902 49.5995C75.4211 49.9355 75.6087 50.2016 75.853 50.3979C76.0974 50.5921 76.3897 50.6892 76.73 50.6892C77.0747 50.6892 77.3692 50.591 77.6135 50.3947C77.8578 50.1962 78.0444 49.9278 78.1731 49.5897C78.304 49.2516 78.3694 48.872 78.3694 48.4509C78.3694 48.0299 78.304 47.6514 78.1731 47.3155C78.0444 46.9795 77.8578 46.7145 77.6135 46.5203C77.3692 46.324 77.0747 46.2258 76.73 46.2258C76.3897 46.2258 76.0974 46.3229 75.853 46.517C75.6087 46.709 75.4211 46.973 75.2902 47.3089C75.1615 47.6427 75.0972 48.0234 75.0972 48.4509ZM91.1858 51.0589C90.7822 51.0589 90.4299 50.9477 90.1289 50.7252C89.8278 50.5027 89.5944 50.1962 89.4286 49.8057C89.265 49.413 89.1832 48.9625 89.1832 48.4542C89.1832 47.9503 89.2661 47.5031 89.4319 47.1126C89.5998 46.7199 89.8344 46.4123 90.1354 46.1898C90.4364 45.9651 90.7877 45.8528 91.1891 45.8528C91.477 45.8528 91.7268 45.9084 91.9384 46.0197C92.1522 46.1287 92.3311 46.2738 92.4751 46.4549C92.6212 46.6359 92.7325 46.8345 92.8088 47.0504H92.8481V44.2526H93.244V50.9542H92.8579V49.858H92.8088C92.7281 50.074 92.6158 50.2736 92.4718 50.4568C92.3278 50.6379 92.1489 50.7841 91.9351 50.8953C91.7214 51.0044 91.4716 51.0589 91.1858 51.0589ZM91.2218 50.6892C91.5621 50.6892 91.8533 50.5921 92.0955 50.3979C92.3398 50.2016 92.5263 49.9355 92.655 49.5995C92.7859 49.2614 92.8514 48.8785 92.8514 48.4509C92.8514 48.0234 92.7859 47.6427 92.655 47.3089C92.5263 46.973 92.3398 46.709 92.0955 46.517C91.8533 46.3229 91.5621 46.2258 91.2218 46.2258C90.8771 46.2258 90.5815 46.324 90.335 46.5203C90.0907 46.7145 89.9031 46.9795 89.7722 47.3155C89.6435 47.6514 89.5791 48.0299 89.5791 48.4509C89.5791 48.872 89.6435 49.2516 89.7722 49.5897C89.9031 49.9278 90.0907 50.1962 90.335 50.3947C90.5815 50.591 90.8771 50.6892 91.2218 50.6892ZM100.364 51.0589C99.9102 51.0589 99.5153 50.9466 99.1794 50.7219C98.8434 50.4972 98.5838 50.1896 98.4006 49.7991C98.2174 49.4086 98.1257 48.9636 98.1257 48.464C98.1257 47.9623 98.2174 47.5151 98.4006 47.1224C98.586 46.7297 98.8402 46.42 99.163 46.1931C99.4859 45.9662 99.8546 45.8528 100.269 45.8528C100.55 45.8528 100.817 45.9095 101.067 46.0229C101.321 46.1342 101.543 46.2956 101.735 46.5072C101.929 46.7188 102.081 46.9741 102.19 47.2729C102.301 47.5718 102.357 47.9078 102.357 48.2808V48.5295H98.3777V48.1663H101.958C101.958 47.8019 101.883 47.4736 101.735 47.1813C101.587 46.889 101.385 46.6567 101.13 46.4843C100.874 46.312 100.588 46.2258 100.269 46.2258C99.9353 46.2258 99.6375 46.3196 99.3757 46.5072C99.1161 46.6927 98.91 46.9435 98.7573 47.2598C98.6067 47.5762 98.5282 47.9296 98.5217 48.3201V48.4837C98.5217 48.9025 98.5948 49.2788 98.7409 49.6126C98.8893 49.9442 99.1009 50.2071 99.3757 50.4012C99.6506 50.5932 99.98 50.6892 100.364 50.6892C100.639 50.6892 100.873 50.6434 101.067 50.5517C101.264 50.4579 101.424 50.3445 101.549 50.2114C101.673 50.0783 101.767 49.9496 101.83 49.8253L102.193 49.9725C102.117 50.1405 101.998 50.3085 101.836 50.4765C101.677 50.6423 101.474 50.7808 101.228 50.8921C100.983 51.0033 100.696 51.0589 100.364 51.0589ZM110.288 47.0112L109.918 47.1093C109.86 46.9261 109.776 46.7679 109.666 46.6348C109.557 46.5018 109.42 46.3992 109.254 46.3273C109.091 46.2531 108.894 46.216 108.665 46.216C108.296 46.216 107.994 46.3076 107.759 46.4909C107.525 46.6741 107.409 46.913 107.409 47.2075C107.409 47.4475 107.488 47.646 107.647 47.803C107.807 47.9579 108.05 48.0757 108.377 48.1564L109.149 48.3495C109.546 48.4477 109.845 48.6069 110.046 48.8273C110.247 49.0454 110.347 49.317 110.347 49.642C110.347 49.9191 110.272 50.1645 110.121 50.3783C109.971 50.5921 109.762 50.759 109.496 50.879C109.232 50.9989 108.925 51.0589 108.574 51.0589C108.104 51.0589 107.719 50.9499 107.418 50.7317C107.117 50.5114 106.924 50.1962 106.839 49.786L107.222 49.6879C107.294 50.0151 107.444 50.2649 107.67 50.4372C107.899 50.6074 108.199 50.6924 108.57 50.6924C108.98 50.6924 109.311 50.5954 109.562 50.4012C109.815 50.2071 109.941 49.9584 109.941 49.6551C109.941 49.4239 109.867 49.2287 109.719 49.0694C109.57 48.9102 109.346 48.7934 109.045 48.7193L108.243 48.5229C107.833 48.4226 107.525 48.2622 107.32 48.0419C107.115 47.8194 107.013 47.5456 107.013 47.2206C107.013 46.9501 107.084 46.7123 107.225 46.5072C107.367 46.3022 107.562 46.1418 107.811 46.0262C108.06 45.9106 108.344 45.8528 108.665 45.8528C109.091 45.8528 109.437 45.9531 109.706 46.1538C109.974 46.3545 110.168 46.6403 110.288 47.0112ZM115.112 50.9542V45.928H115.508V50.9542H115.112ZM115.311 45.038C115.224 45.038 115.148 45.0074 115.082 44.9464C115.019 44.8853 114.987 44.8111 114.987 44.7238C114.987 44.6366 115.019 44.5624 115.082 44.5013C115.146 44.4403 115.222 44.4097 115.311 44.4097C115.399 44.4097 115.474 44.4403 115.537 44.5013C115.603 44.5624 115.635 44.6366 115.635 44.7238C115.635 44.8111 115.604 44.8853 115.54 44.9464C115.477 45.0074 115.401 45.038 115.311 45.038ZM122.356 52.9438C122.044 52.9438 121.764 52.9023 121.515 52.8194C121.266 52.7387 121.055 52.6231 120.88 52.4726C120.708 52.322 120.576 52.1431 120.484 51.9359L120.818 51.7396C120.892 51.901 120.998 52.045 121.135 52.1715C121.273 52.298 121.443 52.3973 121.646 52.4693C121.851 52.5413 122.088 52.5773 122.356 52.5773C122.84 52.5773 123.223 52.4518 123.505 52.201C123.788 51.9523 123.93 51.5705 123.93 51.0557V49.8057H123.891C123.814 50.0238 123.701 50.218 123.55 50.3881C123.402 50.5561 123.22 50.6881 123.004 50.7841C122.788 50.8801 122.543 50.928 122.268 50.928C121.871 50.928 121.522 50.8255 121.221 50.6205C120.92 50.4154 120.685 50.1274 120.517 49.7566C120.349 49.3835 120.265 48.9451 120.265 48.4411C120.265 47.9372 120.347 47.4911 120.51 47.1028C120.676 46.7123 120.91 46.4069 121.211 46.1865C121.512 45.964 121.865 45.8528 122.271 45.8528C122.561 45.8528 122.812 45.9084 123.024 46.0197C123.237 46.1287 123.416 46.2738 123.56 46.4549C123.704 46.6359 123.815 46.8345 123.894 47.0504H123.94V45.928H124.326V51.072C124.326 51.4909 124.243 51.8388 124.077 52.1159C123.914 52.3929 123.683 52.6002 123.387 52.7376C123.092 52.875 122.749 52.9438 122.356 52.9438ZM122.304 50.5583C122.64 50.5583 122.929 50.4732 123.171 50.303C123.415 50.1307 123.603 49.8864 123.734 49.5701C123.867 49.2516 123.933 48.8742 123.933 48.4379C123.933 48.0146 123.869 47.6362 123.74 47.3024C123.611 46.9686 123.425 46.7057 123.181 46.5138C122.936 46.3218 122.644 46.2258 122.304 46.2258C121.957 46.2258 121.661 46.324 121.417 46.5203C121.173 46.7145 120.985 46.9784 120.854 47.3122C120.725 47.646 120.661 48.0212 120.661 48.4379C120.661 48.8567 120.726 49.2254 120.857 49.5439C120.988 49.8602 121.176 50.1089 121.42 50.29C121.664 50.4688 121.959 50.5583 122.304 50.5583ZM129.768 47.6951V50.9542H129.369V45.928H129.758V46.7232H129.797C129.915 46.4636 130.104 46.2553 130.364 46.0982C130.623 45.9411 130.932 45.8626 131.29 45.8626C131.628 45.8626 131.924 45.9346 132.18 46.0786C132.437 46.2225 132.638 46.4276 132.782 46.6937C132.928 46.9577 133.001 47.2729 133.001 47.6394V50.9542H132.602V47.6558C132.602 47.2282 132.474 46.8846 132.219 46.625C131.966 46.3632 131.631 46.2324 131.214 46.2324C130.935 46.2324 130.686 46.2934 130.468 46.4156C130.25 46.5378 130.079 46.709 129.955 46.9293C129.83 47.1475 129.768 47.4027 129.768 47.6951ZM139.983 51.0589C139.53 51.0589 139.135 50.9466 138.799 50.7219C138.463 50.4972 138.203 50.1896 138.02 49.7991C137.837 49.4086 137.745 48.9636 137.745 48.464C137.745 47.9623 137.837 47.5151 138.02 47.1224C138.206 46.7297 138.46 46.42 138.783 46.1931C139.105 45.9662 139.474 45.8528 139.889 45.8528C140.17 45.8528 140.436 45.9095 140.687 46.0229C140.94 46.1342 141.163 46.2956 141.355 46.5072C141.549 46.7188 141.7 46.9741 141.809 47.2729C141.921 47.5718 141.976 47.9078 141.976 48.2808V48.5295H137.997V48.1663H141.577C141.577 47.8019 141.503 47.4736 141.355 47.1813C141.206 46.889 141.004 46.6567 140.749 46.4843C140.494 46.312 140.207 46.2258 139.889 46.2258C139.555 46.2258 139.257 46.3196 138.995 46.5072C138.736 46.6927 138.529 46.9435 138.377 47.2598C138.226 47.5762 138.148 47.9296 138.141 48.3201V48.4837C138.141 48.9025 138.214 49.2788 138.36 49.6126C138.509 49.9442 138.72 50.2071 138.995 50.4012C139.27 50.5932 139.6 50.6892 139.983 50.6892C140.258 50.6892 140.493 50.6434 140.687 50.5517C140.883 50.4579 141.044 50.3445 141.168 50.2114C141.292 50.0783 141.386 49.9496 141.449 49.8253L141.813 49.9725C141.736 50.1405 141.617 50.3085 141.456 50.4765C141.297 50.6423 141.094 50.7808 140.847 50.8921C140.603 51.0033 140.315 51.0589 139.983 51.0589ZM146.714 50.9542V45.928H147.103V46.7134H147.139C147.248 46.456 147.433 46.2498 147.692 46.0949C147.952 45.9379 148.248 45.8593 148.579 45.8593C148.614 45.8593 148.649 45.8593 148.684 45.8593C148.719 45.8593 148.751 45.8604 148.782 45.8626V46.2651C148.756 46.2629 148.724 46.2596 148.687 46.2553C148.652 46.2487 148.609 46.2454 148.556 46.2454C148.277 46.2454 148.028 46.3054 147.81 46.4254C147.594 46.5454 147.424 46.7112 147.3 46.9228C147.175 47.1322 147.113 47.3722 147.113 47.6427V50.9542H146.714Z" fill="#FEFDFD"/>
<defs>
<linearGradient id="paint0_linear_7802_48" x1="29.5822" y1="3.47292" x2="19.8209" y2="58.8324" gradientUnits="userSpaceOnUse">
<stop stop-color="#C1D62B"/>
<stop offset="1" stop-color="#E2F74A"/>
</linearGradient>
</defs>
</svg>
